<svg width="24" height="16" viewBox="0 0 24 16" fill="none" xmlns="http://www.w3.org/2000/svg">
<path fill-rule="evenodd" clip-rule="evenodd" d="M19.35 6.04C18.67 2.59 15.64 0 12 0C9.11 0 6.6 1.64 5.35 4.04C2.34 4.36 0 6.91 0 10C0 13.31 2.69 16 6 16H19C21.76 16 24 13.76 24 11C24 8.36 21.95 6.22 19.35 6.04ZM10.71 12.29C10.32 12.68 9.69 12.68 9.3 12.29L7.2 10.2C7.01275 10.0132 6.90751 9.75952 6.90751 9.495C6.90751 9.23048 7.01275 8.97683 7.2 8.79C7.59 8.4 8.22 8.4 8.61 8.79L10 10.18L14.48 5.7C14.87 5.31 15.5 5.31 15.89 5.7C16.28 6.09 16.28 6.72 15.89 7.11L10.71 12.29Z" fill="#C3CAD9"/>
</svg>
