<svg width="23" height="16" viewBox="0 0 23 16" fill="none" xmlns="http://www.w3.org/2000/svg">
<path fill-rule="evenodd" clip-rule="evenodd" d="M14.4 8C16.61 8 18.4 6.21 18.4 4C18.4 1.79 16.61 0 14.4 0C12.19 0 10.4 1.79 10.4 4C10.4 6.21 12.19 8 14.4 8ZM5.40002 6V4C5.40002 3.45 4.95002 3 4.40002 3C3.85002 3 3.40002 3.45 3.40002 4V6H1.40002C0.850024 6 0.400024 6.45 0.400024 7C0.400024 7.55 0.850024 8 1.40002 8H3.40002V10C3.40002 10.55 3.85002 11 4.40002 11C4.95002 11 5.40002 10.55 5.40002 10V8H7.40002C7.95002 8 8.40002 7.55 8.40002 7C8.40002 6.45 7.95002 6 7.40002 6H5.40002ZM14.4 10C11.73 10 6.40002 11.34 6.40002 14V15C6.40002 15.55 6.85002 16 7.40002 16H21.4C21.95 16 22.4 15.55 22.4 15V14C22.4 11.34 17.07 10 14.4 10Z" fill="#C3CAD9"/>
</svg>
