<svg width="21" height="20" viewBox="0 0 21 20" fill="none" xmlns="http://www.w3.org/2000/svg">
<path fill-rule="evenodd" clip-rule="evenodd" d="M18.2 0H2.19995C1.09995 0 0.209951 0.9 0.209951 2L0.199951 20L4.19995 16H18.2C19.3 16 20.2 15.1 20.2 14V2C20.2 0.9 19.3 0 18.2 0ZM15.2 12H5.19995C4.64995 12 4.19995 11.55 4.19995 11C4.19995 10.45 4.64995 10 5.19995 10H15.2C15.75 10 16.2 10.45 16.2 11C16.2 11.55 15.75 12 15.2 12ZM15.2 9H5.19995C4.64995 9 4.19995 8.55 4.19995 8C4.19995 7.45 4.64995 7 5.19995 7H15.2C15.75 7 16.2 7.45 16.2 8C16.2 8.55 15.75 9 15.2 9ZM15.2 6H5.19995C4.64995 6 4.19995 5.55 4.19995 5C4.19995 4.45 4.64995 4 5.19995 4H15.2C15.75 4 16.2 4.45 16.2 5C16.2 5.55 15.75 6 15.2 6Z" fill="#C3CAD9"/>
</svg>
