<svg width="19" height="10" viewBox="0 0 19 10" fill="none" xmlns="http://www.w3.org/2000/svg">
<path fill-rule="evenodd" clip-rule="evenodd" d="M3.79999 6H15.8C16.35 6 16.8 5.55 16.8 5C16.8 4.45 16.35 4 15.8 4H3.79999C3.24999 4 2.79999 4.45 2.79999 5C2.79999 5.55 3.24999 6 3.79999 6ZM1.79999 10H13.8C14.35 10 14.8 9.55 14.8 9C14.8 8.45 14.35 8 13.8 8H1.79999C1.24999 8 0.799988 8.45 0.799988 9C0.799988 9.55 1.24999 10 1.79999 10ZM4.79999 1C4.79999 1.55 5.24999 2 5.79999 2H17.8C18.35 2 18.8 1.55 18.8 1C18.8 0.45 18.35 0 17.8 0H5.79999C5.24999 0 4.79999 0.45 4.79999 1Z" fill="#C3CAD9"/>
</svg>
