<svg width="21" height="18" viewBox="0 0 21 18" fill="none" xmlns="http://www.w3.org/2000/svg">
<path fill-rule="evenodd" clip-rule="evenodd" d="M12.1515 0.00349834C7.06151 -0.136502 2.89151 3.9435 2.89151 9.0035H1.10151C0.65151 9.0035 0.43151 9.5435 0.75151 9.8535L3.54151 12.6535C3.74151 12.8535 4.05151 12.8535 4.25151 12.6535L7.04151 9.8535C7.36151 9.5435 7.13151 9.0035 6.69151 9.0035H4.89151C4.89151 5.1035 8.07151 1.9535 11.9915 2.0035C15.7115 2.0535 18.8415 5.1835 18.8915 8.9035C18.9415 12.8135 15.7915 16.0035 11.8915 16.0035C10.2815 16.0035 8.79151 15.4535 7.61151 14.5235C7.21151 14.2135 6.65151 14.2435 6.29151 14.6035C5.87151 15.0335 5.90151 15.7335 6.37151 16.1035C7.89151 17.2935 9.81151 18.0035 11.8915 18.0035C16.9415 18.0035 21.0315 13.8335 20.8915 8.7435C20.7615 4.0535 16.8415 0.133498 12.1515 0.00349834ZM11.6415 5.0035C11.2315 5.0035 10.8915 5.3435 10.8915 5.7535V9.4335C10.8915 9.7835 11.0815 10.1135 11.3815 10.2935L14.5015 12.1435C14.8615 12.3535 15.3215 12.2335 15.5315 11.8835C15.7415 11.5235 15.6215 11.0635 15.2715 10.8535L12.3915 9.1435V5.7435C12.3915 5.3435 12.0615 5.0035 11.6415 5.0035Z" fill="#C3CAD9"/>
</svg>
